<svg width="16" height="16" viewBox="0 0 16 16" fill="none" xmlns="http://www.w3.org/2000/svg">
<path d="M11.8047 0.195262C11.5443 -0.0650874 11.1222 -0.0650874 10.8618 0.195262C10.6015 0.455612 10.6015 0.877722 10.8618 1.13807L12.3904 2.66667H4.66659C3.78253 2.66667 2.93468 3.01786 2.30956 3.64298C1.68444 4.2681 1.33325 5.11595 1.33325 6V7.33333C1.33325 7.70152 1.63173 8 1.99992 8C2.36811 8 2.66659 7.70152 2.66659 7.33333V6C2.66659 5.46957 2.8773 4.96086 3.25237 4.58579C3.62744 4.21071 4.13615 4 4.66659 4H12.3904L10.8618 5.5286C10.6015 5.78895 10.6015 6.21106 10.8618 6.4714C11.1222 6.73175 11.5443 6.73175 11.8047 6.4714L14.4713 3.80474C14.7317 3.54439 14.7317 3.12228 14.4713 2.86193L11.8047 0.195262Z" fill="#667A73"/>
<path d="M5.13799 9.5286C5.39834 9.78895 5.39834 10.2111 5.13799 10.4714L3.60939 12H11.3333C11.8637 12 12.3724 11.7893 12.7475 11.4142C13.1225 11.0391 13.3333 10.5304 13.3333 10V8.66667C13.3333 8.29848 13.6317 8 13.9999 8C14.3681 8 14.6666 8.29848 14.6666 8.66667V10C14.6666 10.8841 14.3154 11.7319 13.6903 12.357C13.0652 12.9821 12.2173 13.3333 11.3333 13.3333H3.60939L5.13799 14.8619C5.39834 15.1223 5.39834 15.5444 5.13799 15.8047C4.87764 16.0651 4.45553 16.0651 4.19518 15.8047L1.52851 13.1381C1.26816 12.8777 1.26816 12.4556 1.52851 12.1953L4.19518 9.5286C4.45553 9.26825 4.87764 9.26825 5.13799 9.5286Z" fill="#667A73"/>
</svg>
