<svg width="16" height="16" viewBox="0 0 16 16" fill="none" xmlns="http://www.w3.org/2000/svg">
<path fill-rule="evenodd" clip-rule="evenodd" d="M10.6667 1.33331H5.33341C4.4626 1.33331 3.72178 1.88985 3.44722 2.66665H2.66675C1.56218 2.66665 0.666748 3.56208 0.666748 4.66665V11.3333C0.666748 12.4379 1.56218 13.3333 2.66675 13.3333H3.44722C3.72178 14.1101 4.4626 14.6666 5.33341 14.6666H10.6667C11.5376 14.6666 12.2784 14.1101 12.5529 13.3333H13.3334C14.438 13.3333 15.3334 12.4379 15.3334 11.3333V4.66665C15.3334 3.56208 14.438 2.66665 13.3334 2.66665H12.5529C12.2784 1.88985 11.5376 1.33331 10.6667 1.33331ZM12.6667 3.99998V12H13.3334C13.7016 12 14.0001 11.7015 14.0001 11.3333V4.66665C14.0001 4.29846 13.7016 3.99998 13.3334 3.99998H12.6667ZM3.33341 12V3.99998H2.66675C2.29856 3.99998 2.00008 4.29846 2.00008 4.66665V11.3333C2.00008 11.7015 2.29856 12 2.66675 12H3.33341ZM4.66675 3.33331C4.66675 2.96512 4.96523 2.66665 5.33341 2.66665H10.6667C11.0349 2.66665 11.3334 2.96512 11.3334 3.33331V12.6666C11.3334 13.0348 11.0349 13.3333 10.6667 13.3333H5.33341C4.96523 13.3333 4.66675 13.0348 4.66675 12.6666V3.33331Z" fill="#002116"/>
</svg>
