<svg width="16" height="16" viewBox="0 0 16 16" fill="none" xmlns="http://www.w3.org/2000/svg">
<path fill-rule="evenodd" clip-rule="evenodd" d="M8.00008 0C7.29284 0 6.61456 0.280951 6.11446 0.781049C5.61437 1.28115 5.33341 1.95942 5.33341 2.66667V8C5.33341 8.70724 5.61437 9.38552 6.11446 9.88562C6.61456 10.3857 7.29284 10.6667 8.00008 10.6667C8.70732 10.6667 9.3856 10.3857 9.8857 9.88562C10.3858 9.38552 10.6667 8.70724 10.6667 8V2.66667C10.6667 1.95942 10.3858 1.28115 9.8857 0.781049C9.3856 0.280951 8.70732 0 8.00008 0ZM7.05727 1.72386C7.30732 1.47381 7.64646 1.33333 8.00008 1.33333C8.3537 1.33333 8.69284 1.47381 8.94289 1.72386C9.19294 1.97391 9.33342 2.31304 9.33342 2.66667V8C9.33342 8.35362 9.19294 8.69276 8.94289 8.94281C8.69284 9.19286 8.3537 9.33333 8.00008 9.33333C7.64646 9.33333 7.30732 9.19286 7.05727 8.94281C6.80722 8.69276 6.66675 8.35362 6.66675 8V2.66667C6.66675 2.31304 6.80722 1.97391 7.05727 1.72386Z" fill="#667A73"/>
<path d="M4.00008 6.66667C4.00008 6.29848 3.7016 6 3.33341 6C2.96522 6 2.66675 6.29848 2.66675 6.66667V8C2.66675 9.41449 3.22865 10.771 4.22885 11.7712C5.0706 12.613 6.16475 13.1443 7.33342 13.2915V14.6667H5.33341C4.96522 14.6667 4.66675 14.9651 4.66675 15.3333C4.66675 15.7015 4.96522 16 5.33341 16H10.6667C11.0349 16 11.3334 15.7015 11.3334 15.3333C11.3334 14.9651 11.0349 14.6667 10.6667 14.6667H8.66675V13.2915C9.83541 13.1443 10.9296 12.613 11.7713 11.7712C12.7715 10.771 13.3334 9.41449 13.3334 8V6.66667C13.3334 6.29848 13.0349 6 12.6667 6C12.2986 6 12.0001 6.29848 12.0001 6.66667V8C12.0001 9.06087 11.5787 10.0783 10.8285 10.8284C10.0784 11.5786 9.06095 12 8.00008 12C6.93922 12 5.9218 11.5786 5.17165 10.8284C4.42151 10.0783 4.00008 9.06087 4.00008 8V6.66667Z" fill="#667A73"/>
</svg>
