<svg width="25" height="25" viewBox="0 0 25 25" fill="none" xmlns="http://www.w3.org/2000/svg">
<path d="M12.501 9.37498C11.6722 9.37498 10.8773 9.70422 10.2913 10.2903C9.7052 10.8763 9.37596 11.6712 9.37596 12.5C9.37596 13.3288 9.7052 14.1236 10.2913 14.7097C10.8773 15.2957 11.6722 15.625 12.501 15.625C13.3298 15.625 14.1246 15.2957 14.7107 14.7097C15.2967 14.1236 15.626 13.3288 15.626 12.5C15.626 11.6712 15.2967 10.8763 14.7107 10.2903C14.1246 9.70422 13.3298 9.37498 12.501 9.37498ZM12.501 7.29165C13.8823 7.29165 15.2071 7.84038 16.1838 8.81713C17.1606 9.79388 17.7093 11.1186 17.7093 12.5C17.7093 13.8813 17.1606 15.2061 16.1838 16.1828C15.2071 17.1596 13.8823 17.7083 12.501 17.7083C11.1196 17.7083 9.79487 17.1596 8.81811 16.1828C7.84136 15.2061 7.29263 13.8813 7.29263 12.5C7.29263 11.1186 7.84136 9.79388 8.81811 8.81713C9.79487 7.84038 11.1196 7.29165 12.501 7.29165ZM19.2718 7.03123C19.2718 7.37656 19.1346 7.70775 18.8904 7.95194C18.6462 8.19613 18.315 8.33331 17.9697 8.33331C17.6244 8.33331 17.2932 8.19613 17.049 7.95194C16.8048 7.70775 16.6676 7.37656 16.6676 7.03123C16.6676 6.6859 16.8048 6.35471 17.049 6.11052C17.2932 5.86633 17.6244 5.72915 17.9697 5.72915C18.315 5.72915 18.6462 5.86633 18.8904 6.11052C19.1346 6.35471 19.2718 6.6859 19.2718 7.03123ZM12.501 4.16665C9.92388 4.16665 9.50304 4.17394 8.30409 4.22706C7.48742 4.2656 6.9395 4.37498 6.43117 4.5729C6.00577 4.72908 5.62118 4.97942 5.30617 5.30519C4.98013 5.62019 4.72945 6.00475 4.57284 6.43019C4.37492 6.9406 4.26554 7.48748 4.22804 8.30311C4.17388 9.45311 4.16659 9.85519 4.16659 12.5C4.16659 15.0781 4.17388 15.4979 4.227 16.6969C4.26554 17.5125 4.37492 18.0614 4.57179 18.5687C4.74888 19.0219 4.95721 19.3479 5.30304 19.6937C5.65409 20.0437 5.98013 20.2531 6.42804 20.426C6.94263 20.625 7.49054 20.7354 8.30304 20.7729C9.45304 20.8271 9.85513 20.8333 12.4999 20.8333C15.078 20.8333 15.4978 20.826 16.6968 20.7729C17.5114 20.7344 18.0593 20.625 18.5687 20.4281C18.9937 20.2712 19.3781 20.0209 19.6937 19.6958C20.0447 19.3458 20.2541 19.0198 20.427 18.5708C20.6249 18.0583 20.7353 17.5104 20.7728 16.6958C20.827 15.5469 20.8333 15.1437 20.8333 12.5C20.8333 9.9229 20.826 9.50206 20.7728 8.30311C20.7343 7.48852 20.6239 6.93852 20.427 6.43019C20.27 6.00521 20.0198 5.62079 19.6947 5.30519C19.3799 4.97899 18.9952 4.72828 18.5697 4.57185C18.0593 4.37394 17.5114 4.26456 16.6968 4.22706C15.5478 4.1729 15.1458 4.16665 12.4999 4.16665M12.4999 2.08331C15.3301 2.08331 15.6833 2.09373 16.7947 2.14581C17.903 2.1979 18.6593 2.37185 19.3228 2.63019C20.0103 2.89477 20.5895 3.2531 21.1687 3.83123C21.6984 4.35195 22.1082 4.98184 22.3697 5.67706C22.627 6.3406 22.802 7.09685 22.8541 8.20623C22.903 9.31665 22.9166 9.66977 22.9166 12.5C22.9166 15.3302 22.9062 15.6833 22.8541 16.7937C22.802 17.9031 22.627 18.6583 22.3697 19.3229C22.1089 20.0185 21.699 20.6485 21.1687 21.1687C20.6478 21.6982 20.018 22.1081 19.3228 22.3698C18.6593 22.6271 17.903 22.8021 16.7947 22.8541C15.6833 22.9031 15.3301 22.9166 12.4999 22.9166C9.66971 22.9166 9.31659 22.9062 8.20513 22.8541C7.09679 22.8021 6.34159 22.6271 5.677 22.3698C4.98151 22.1088 4.35151 21.6989 3.83117 21.1687C3.30141 20.6481 2.89154 20.0182 2.63013 19.3229C2.37179 18.6594 2.19784 17.9031 2.14575 16.7937C2.09575 15.6833 2.08325 15.3302 2.08325 12.5C2.08325 9.66977 2.09367 9.31665 2.14575 8.20623C2.19784 7.09685 2.37179 6.34165 2.63013 5.67706C2.89079 4.98142 3.30076 4.35136 3.83117 3.83123C4.35166 3.30126 4.98162 2.89136 5.677 2.63019C6.34054 2.37185 7.09575 2.1979 8.20513 2.14581C9.31763 2.09685 9.67075 2.08331 12.501 2.08331" fill="#002116"/>
</svg>
