<svg width="25" height="25" viewBox="0 0 25 25" fill="none" xmlns="http://www.w3.org/2000/svg">
<g clip-path="url(#clip0_25_73)">
<path fill-rule="evenodd" clip-rule="evenodd" d="M5.67718 4.8156C7.28864 3.0979 9.6251 2.08331 12.5178 2.08331C17.273 2.08331 20.4261 4.82394 21.4241 8.62186C21.4942 8.88914 21.4553 9.17336 21.316 9.41198C21.1766 9.6506 20.9481 9.82408 20.6808 9.89425C20.4135 9.96442 20.1293 9.92554 19.8907 9.78616C19.6521 9.64678 19.4786 9.41831 19.4084 9.15102C18.6511 6.2729 16.3293 4.16665 12.5168 4.16665C10.1355 4.16665 8.37093 4.98852 7.19801 6.23956C6.01468 7.50206 5.35531 9.28436 5.35531 11.3281V13.6719C5.35531 15.7156 6.01468 17.4979 7.19801 18.7594C8.37093 20.0125 10.1355 20.8333 12.5168 20.8333C14.2407 20.8333 15.6084 20.4333 16.6584 19.7864C17.7157 19.1354 18.3459 18.2719 18.523 17.2812C18.7261 16.1396 18.4761 15.3562 18.0459 14.7906C17.8096 14.4867 17.5228 14.2256 17.198 14.0187C17.0574 14.7989 16.8063 15.5354 16.4272 16.1125C15.0293 18.2364 12.3563 18.4187 10.5938 17.7156C9.63968 17.3354 8.82197 16.2948 8.56781 15.1791C8.41477 14.5396 8.46614 13.8682 8.71468 13.2594C8.99072 12.5969 9.50218 12.0323 10.2303 11.6031C10.9511 11.1771 12.022 10.9812 13.0834 10.9521C13.723 10.9344 14.4168 10.9771 15.1147 11.0906C14.9688 10.4135 14.722 9.90831 14.4438 9.64894C13.9397 9.18019 13.1043 8.84998 12.2668 8.85519C11.4574 8.86144 10.7709 9.1729 10.3605 9.82915C10.2141 10.0634 9.9806 10.2299 9.71141 10.2921C9.44222 10.3542 9.15937 10.3068 8.9251 10.1604C8.69082 10.014 8.52431 9.78049 8.46219 9.51129C8.40007 9.2421 8.44743 8.95926 8.59385 8.72498C9.46572 7.33123 10.9022 6.78227 12.2532 6.77185C13.5761 6.76248 14.9386 7.26352 15.8636 8.12394C16.7991 8.99477 17.2011 10.4229 17.3053 11.7219C18.2157 12.1187 19.0761 12.701 19.7063 13.5312C20.5199 14.6041 20.8699 15.9875 20.5741 17.6469C20.272 19.3385 19.2043 20.6656 17.7511 21.5604C16.3261 22.4375 14.5678 22.9166 12.5168 22.9166C9.6251 22.9166 7.2876 21.9021 5.67822 20.1844C4.07822 18.4781 3.27197 16.1594 3.27197 13.6719V11.3281C3.27197 8.84061 4.07822 6.52186 5.67822 4.8156H5.67718ZM15.2084 13.2291C14.5291 13.0821 13.8345 13.0171 13.1397 13.0354C12.2116 13.0604 11.5605 13.2364 11.2886 13.3969C10.8886 13.6333 10.7157 13.8739 10.6386 14.0604C10.5565 14.2695 10.5427 14.4992 10.5991 14.7166C10.7261 15.275 11.1459 15.6937 11.3657 15.7802C12.5386 16.2489 14.0063 16.001 14.6866 14.9677C14.9313 14.5948 15.1261 13.9677 15.2074 13.2291H15.2084Z" fill="#002116"/>
</g>
<defs>
<clipPath id="clip0_25_73">
<rect width="25" height="25" fill="white"/>
</clipPath>
</defs>
</svg>
