<svg width="25" height="25" viewBox="0 0 25 25" fill="none" xmlns="http://www.w3.org/2000/svg">
<path d="M17.2916 6.0625C16.5795 5.24961 16.1871 4.20566 16.1874 3.125H12.9687V16.0417C12.9438 16.7407 12.6487 17.4027 12.1455 17.8885C11.6423 18.3742 10.9702 18.6457 10.2708 18.6458C8.79159 18.6458 7.56242 17.4375 7.56242 15.9375C7.56242 14.1458 9.29159 12.8021 11.0728 13.3542V10.0625C7.47909 9.58333 4.33325 12.375 4.33325 15.9375C4.33325 19.4062 7.20825 21.875 10.2603 21.875C13.5312 21.875 16.1874 19.2188 16.1874 15.9375V9.38542C17.4926 10.3228 19.0597 10.8257 20.6666 10.8229V7.60417C20.6666 7.60417 18.7083 7.69792 17.2916 6.0625Z" fill="#002116"/>
</svg>
