<svg width="25" height="25" viewBox="0 0 25 25" fill="none" xmlns="http://www.w3.org/2000/svg">
<path d="M17.5209 21.6333L3.90944 4.13333C3.83769 4.04095 3.79332 3.93028 3.78135 3.81393C3.76939 3.69757 3.79032 3.58019 3.84176 3.47514C3.8932 3.37009 3.97309 3.28158 4.07234 3.21968C4.17159 3.15778 4.28622 3.12498 4.40319 3.125H6.98652C7.08162 3.12514 7.17544 3.14698 7.26082 3.18886C7.3462 3.23074 7.4209 3.29155 7.47923 3.36667L21.0907 20.8667C21.1624 20.9591 21.2068 21.0697 21.2188 21.1861C21.2307 21.3024 21.2098 21.4198 21.1584 21.5249C21.1069 21.6299 21.027 21.7184 20.9278 21.7803C20.8285 21.8422 20.7139 21.875 20.5969 21.875H18.0136C17.9185 21.8749 17.8247 21.853 17.7393 21.8111C17.6539 21.7693 17.5792 21.7084 17.5209 21.6333Z" stroke="#002116" stroke-width="1.5"/>
<path d="M20.8334 3.125L4.16675 21.875" stroke="#002116" stroke-width="1.5" stroke-linecap="round"/>
</svg>
